<svg width="24" height="24" viewBox="0 0 24 24" fill="none" xmlns="http://www.w3.org/2000/svg">
<path d="M21.9753 15.8978C21.7467 15.6692 21.3761 15.6692 21.1474 15.8978L19.5977 17.4475C19.2219 17.2927 18.8001 17.2927 18.4243 17.4475L15.0291 14.0522V9.94223L18.4202 6.5511C18.604 6.62735 18.8027 6.66735 19.0077 6.66735C19.2127 6.66735 19.4114 6.62735 19.5952 6.5511L21.1441 8.10001C21.1984 8.15445 21.2629 8.19762 21.3339 8.22705C21.405 8.25648 21.4811 8.27158 21.558 8.27149C21.7078 8.27149 21.8577 8.21431 21.9719 8.10001C22.2005 7.87141 22.2005 7.50075 21.9719 7.27212L20.4222 5.72239C20.6516 5.16712 20.5413 4.50329 20.0907 4.05266C19.64 3.60204 18.9762 3.49173 18.421 3.72118L16.8713 2.17141C16.6427 1.94282 16.272 1.94282 16.0434 2.17141C15.8147 2.40001 15.8147 2.77067 16.0434 2.99931L17.5931 4.54903C17.4383 4.92485 17.4383 5.34661 17.5931 5.72243L14.3283 8.98723L12.478 8.04403C12.3753 7.99192 12.2618 7.96475 12.1467 7.96475C12.0316 7.96475 11.9181 7.99192 11.8155 8.04403L9.96297 8.98837L6.69703 5.72243C6.85183 5.34661 6.85183 4.92485 6.69703 4.54903L8.24676 2.99931C8.47539 2.77071 8.47539 2.40005 8.24676 2.17141C8.01816 1.94282 7.6475 1.94282 7.41887 2.17141L5.86918 3.72114C5.31387 3.49169 4.65004 3.60208 4.19949 4.05266C3.74887 4.50333 3.63848 5.16708 3.86793 5.72239L2.3182 7.27212C2.08957 7.50071 2.08957 7.87138 2.3182 8.10001C2.3725 8.15445 2.43701 8.19762 2.50804 8.22705C2.57908 8.25648 2.65522 8.27158 2.73211 8.27149C2.88191 8.27149 3.03176 8.21431 3.14602 8.10001L4.69492 6.5511C4.88117 6.62818 5.08082 6.66769 5.28238 6.66735C5.48396 6.66769 5.68362 6.62818 5.86988 6.5511L9.26434 9.94556V14.0556L5.87238 17.4475C5.49658 17.2927 5.07483 17.2927 4.69902 17.4475L3.1493 15.8978C2.9207 15.6692 2.55004 15.6692 2.32141 15.8978C2.09277 16.1264 2.09277 16.497 2.32141 16.7257L3.87031 18.2746C3.79323 18.4608 3.75372 18.6605 3.75406 18.8621C3.75406 19.2712 3.9134 19.6559 4.2027 19.9451C4.50125 20.2437 4.89348 20.393 5.2857 20.393C5.48701 20.393 5.68636 20.3535 5.87242 20.2767L7.42211 21.8264C7.53641 21.9407 7.68625 21.9979 7.83602 21.9979C7.98578 21.9979 8.13566 21.9407 8.24992 21.8264C8.47855 21.5978 8.47855 21.2271 8.24992 20.9985L6.70109 19.4496C6.77817 19.2633 6.81768 19.0637 6.81734 18.8621C6.81768 18.6605 6.77818 18.4609 6.70109 18.2746L9.96512 15.0106L11.815 15.9536C11.9178 16.0059 12.0314 16.0332 12.1467 16.0331C12.2618 16.0332 12.3753 16.006 12.4778 15.9538L14.3304 15.0095L17.5955 18.2746C17.5184 18.4608 17.4789 18.6605 17.4792 18.8621C17.4789 19.0636 17.5184 19.2633 17.5955 19.4495L16.0466 20.9984C15.8179 21.227 15.8179 21.5977 16.0466 21.8263C16.1009 21.8808 16.1654 21.924 16.2364 21.9534C16.3074 21.9828 16.3836 21.9979 16.4605 21.9978C16.5374 21.9979 16.6135 21.9828 16.6845 21.9534C16.7556 21.924 16.8201 21.8808 16.8744 21.8263L18.4241 20.2766C18.6101 20.3535 18.8095 20.393 19.0108 20.3929C19.4029 20.3929 19.7952 20.2436 20.0938 19.945C20.383 19.6558 20.5424 19.2711 20.5424 18.862C20.5428 18.6604 20.5033 18.4608 20.4262 18.2745L21.9751 16.7256C22.2039 16.497 22.2039 16.1264 21.9753 15.8978Z" fill="black"/>
</svg>
