<svg width="229" height="195" viewBox="0 0 229 195" fill="none" xmlns="http://www.w3.org/2000/svg">
<rect x="0.5" y="0.5" width="207.912" height="176.895" fill="black" stroke="white"/>
<rect x="20.5878" y="17.6052" width="207.912" height="176.895" stroke="white"/>
<mask id="path-3-outside-1_101_2" maskUnits="userSpaceOnUse" x="24.0878" y="53.2105" width="156" height="92" fill="black">
<rect fill="white" x="24.0878" y="53.2105" width="156" height="92"/>
<path d="M25.3358 144.211V133.075L83.1918 62.4185L85.1118 68.6905H26.2318V54.6105H100.088V65.7465L42.2318 136.403L40.1838 130.131H101.752V144.211H25.3358ZM117.635 144.211V54.6105H178.435L178.307 68.6905H130.051L133.891 64.7225L134.019 144.211H117.635Z"/>
</mask>
<path d="M25.3358 144.211V133.075L83.1918 62.4185L85.1118 68.6905H26.2318V54.6105H100.088V65.7465L42.2318 136.403L40.1838 130.131H101.752V144.211H25.3358ZM117.635 144.211V54.6105H178.435L178.307 68.6905H130.051L133.891 64.7225L134.019 144.211H117.635Z" fill="white"/>
<path d="M25.3358 144.211H24.3358V145.211H25.3358V144.211ZM25.3358 133.075L24.5621 132.441L24.3358 132.717V133.075H25.3358ZM83.1918 62.4185L84.148 62.1258L83.6013 60.34L82.4181 61.785L83.1918 62.4185ZM85.1118 68.6905V69.6905H86.4637L86.068 68.3978L85.1118 68.6905ZM26.2318 68.6905H25.2318V69.6905H26.2318V68.6905ZM26.2318 54.6105V53.6105H25.2318V54.6105H26.2318ZM100.088 54.6105H101.088V53.6105H100.088V54.6105ZM100.088 65.7465L100.861 66.3801L101.088 66.1037V65.7465H100.088ZM42.2318 136.403L41.2812 136.713L41.8482 138.449L43.0055 137.036L42.2318 136.403ZM40.1838 130.131V129.131H38.8053L39.2332 130.441L40.1838 130.131ZM101.752 130.131H102.752V129.131H101.752V130.131ZM101.752 144.211V145.211H102.752V144.211H101.752ZM25.3358 144.211H26.3358V133.075H25.3358H24.3358V144.211H25.3358ZM25.3358 133.075L26.1095 133.708L83.9655 63.052L83.1918 62.4185L82.4181 61.785L24.5621 132.441L25.3358 133.075ZM83.1918 62.4185L82.2356 62.7112L84.1556 68.9832L85.1118 68.6905L86.068 68.3978L84.148 62.1258L83.1918 62.4185ZM85.1118 68.6905V67.6905H26.2318V68.6905V69.6905H85.1118V68.6905ZM26.2318 68.6905H27.2318V54.6105H26.2318H25.2318V68.6905H26.2318ZM26.2318 54.6105V55.6105H100.088V54.6105V53.6105H26.2318V54.6105ZM100.088 54.6105H99.0878V65.7465H100.088H101.088V54.6105H100.088ZM100.088 65.7465L99.3141 65.113L41.4581 135.769L42.2318 136.403L43.0055 137.036L100.861 66.3801L100.088 65.7465ZM42.2318 136.403L43.1824 136.092L41.1344 129.82L40.1838 130.131L39.2332 130.441L41.2812 136.713L42.2318 136.403ZM40.1838 130.131V131.131H101.752V130.131V129.131H40.1838V130.131ZM101.752 130.131H100.752V144.211H101.752H102.752V130.131H101.752ZM101.752 144.211V143.211H25.3358V144.211V145.211H101.752V144.211ZM117.635 144.211H116.635V145.211H117.635V144.211ZM117.635 54.6105V53.6105H116.635V54.6105H117.635ZM178.435 54.6105L179.435 54.6196L179.444 53.6105H178.435V54.6105ZM178.307 68.6905V69.6905H179.298L179.307 68.6996L178.307 68.6905ZM130.051 68.6905L129.332 67.9951L127.691 69.6905H130.051V68.6905ZM133.891 64.7225L134.891 64.7209L134.887 62.2553L133.172 64.0271L133.891 64.7225ZM134.019 144.211V145.211H135.02L135.019 144.209L134.019 144.211ZM117.635 144.211H118.635V54.6105H117.635H116.635V144.211H117.635ZM117.635 54.6105V55.6105H178.435V54.6105V53.6105H117.635V54.6105ZM178.435 54.6105L177.435 54.6014L177.307 68.6814L178.307 68.6905L179.307 68.6996L179.435 54.6196L178.435 54.6105ZM178.307 68.6905V67.6905H130.051V68.6905V69.6905H178.307V68.6905ZM130.051 68.6905L130.769 69.3859L134.609 65.4179L133.891 64.7225L133.172 64.0271L129.332 67.9951L130.051 68.6905ZM133.891 64.7225L132.891 64.7241L133.019 144.212L134.019 144.211L135.019 144.209L134.891 64.7209L133.891 64.7225ZM134.019 144.211V143.211H117.635V144.211V145.211H134.019V144.211Z" fill="white" mask="url(#path-3-outside-1_101_2)"/>
<rect x="209" y="17" width="20" height="178" fill="white"/>
<rect x="21" y="178" width="188" height="17" fill="white"/>
</svg>
