<svg width="20" height="20" viewBox="0 0 20 20" fill="none" xmlns="http://www.w3.org/2000/svg">
<path fill-rule="evenodd" clip-rule="evenodd" d="M8.24535 2.65914C9.25002 1.78029 10.75 1.78029 11.7546 2.65914L16.4865 6.79842C17.2193 7.43942 17.6396 8.3656 17.6396 9.33914V15.335C17.6396 16.8069 16.4465 18 14.9746 18H12.4492V14.3609C12.4492 13.4743 12.4492 13.0311 12.2677 12.6965C12.1293 12.4412 11.9197 12.2316 11.6644 12.0932C11.3298 11.9117 10.8866 11.9117 10 11.9117C9.11344 11.9117 8.67016 11.9117 8.33558 12.0932C8.08031 12.2316 7.87073 12.4412 7.73226 12.6965C7.55078 13.0311 7.55078 13.4743 7.55078 14.3609V18H5.02534C3.55351 18 2.36035 16.8069 2.36035 15.335V9.33914C2.36035 8.3656 2.7807 7.43942 3.51347 6.79842L8.24535 2.65914Z" fill="black"/>
</svg>
