<svg width="20" height="20" viewBox="0 0 20 20" fill="none" xmlns="http://www.w3.org/2000/svg">
<path d="M5.59992 13.8667C5.81209 13.8048 6.04016 13.8297 6.23395 13.936C6.42773 14.0423 6.57137 14.2212 6.63325 14.4333C6.69514 14.6455 6.6702 14.8736 6.56393 15.0674C6.45766 15.2611 6.27876 15.4048 6.06659 15.4667C5.64992 15.5883 5.34992 15.7167 5.15742 15.8333C5.35575 15.9525 5.66909 16.0858 6.10408 16.21C7.06659 16.485 8.44409 16.6667 9.99992 16.6667C11.5558 16.6667 12.9333 16.485 13.8958 16.21C14.3316 16.0858 14.6441 15.9525 14.8424 15.8333C14.6508 15.7167 14.3508 15.5883 13.9341 15.4667C13.7253 15.4021 13.5502 15.258 13.4466 15.0655C13.343 14.873 13.3192 14.6475 13.3803 14.4376C13.4414 14.2277 13.5825 14.0503 13.7732 13.9435C13.964 13.8367 14.189 13.8091 14.3999 13.8667C14.9566 14.0292 15.4666 14.2375 15.8583 14.505C16.2208 14.7542 16.6666 15.1883 16.6666 15.8333C16.6666 16.4858 16.2099 16.9233 15.8416 17.1725C15.4433 17.4408 14.9224 17.65 14.3533 17.8125C13.2049 18.1417 11.6666 18.3333 9.99992 18.3333C8.33325 18.3333 6.79492 18.1417 5.64659 17.8125C5.07742 17.65 4.55659 17.4408 4.15825 17.1725C3.78992 16.9225 3.33325 16.4858 3.33325 15.8333C3.33325 15.1883 3.77909 14.7542 4.14159 14.505C4.53325 14.2375 5.04325 14.0292 5.59992 13.8667Z" fill="red"/>
<path d="M9.99992 1.66666C11.6575 1.66666 13.2472 2.32514 14.4193 3.49725C15.5914 4.66935 16.2499 6.25906 16.2499 7.91666C16.2499 10.0567 15.0833 11.7967 13.8749 13.0333C13.3946 13.5199 12.8784 13.9698 12.3308 14.3792C11.8358 14.7508 10.7041 15.4475 10.7041 15.4475C10.4895 15.5695 10.2468 15.6336 9.99992 15.6336C9.75303 15.6336 9.51039 15.5695 9.29575 15.4475C8.73413 15.1218 8.19107 14.7652 7.66909 14.3792C7.12142 13.9698 6.60525 13.5199 6.12492 13.0333C4.91659 11.7967 3.74992 10.0567 3.74992 7.91666C3.74992 6.25906 4.4084 4.66935 5.5805 3.49725C6.7526 2.32514 8.34232 1.66666 9.99992 1.66666Z" fill="red"/>
<path d="M9.99994 6.25C8.71661 6.25 7.91494 7.63916 8.55661 8.75C8.85411 9.26583 9.40411 9.58333 9.99994 9.58333C11.2833 9.58333 12.0849 8.19416 11.4433 7.08333C11.297 6.82997 11.0866 6.61958 10.8332 6.4733C10.5799 6.32702 10.2925 6.25 9.99994 6.25Z" fill="white"/>
</svg>
